<svg width="61" height="61" viewBox="0 0 61 61" fill="none" xmlns="http://www.w3.org/2000/svg">
<path d="M31.959 7.57471C30.959 6.57471 29.459 6.57471 28.459 7.57471L13.459 22.5747C12.459 23.5747 12.459 25.0747 13.459 26.0747C13.959 26.5747 14.584 26.8247 15.209 26.8247C15.834 26.8247 16.459 26.5747 16.959 26.0747L31.959 11.0747C32.959 10.0747 32.959 8.57471 31.959 7.57471Z" fill="#2E7D32"/>
<path d="M46.959 22.5747L31.959 7.57471C30.959 6.57471 29.459 6.57471 28.459 7.57471C27.459 8.57471 27.459 10.0747 28.459 11.0747L43.459 26.0747C43.959 26.5747 44.584 26.8247 45.209 26.8247C45.834 26.8247 46.459 26.5747 46.959 26.0747C47.959 25.0747 47.959 23.5747 46.959 22.5747Z" fill="#1B5E20"/>
<path d="M46.959 51.8247H13.459C12.209 51.8247 11.209 50.9497 10.959 49.8247L6.45898 26.8247H53.959L49.334 49.8247C49.084 50.9497 48.084 51.8247 46.959 51.8247Z" fill="#388E3C"/>
<path d="M53.959 29.3247H6.45898C5.08398 29.3247 3.95898 28.1997 3.95898 26.8247V24.3247C3.95898 22.9497 5.08398 21.8247 6.45898 21.8247H53.959C55.334 21.8247 56.459 22.9497 56.459 24.3247V26.8247C56.459 28.1997 55.334 29.3247 53.959 29.3247Z" fill="#4CAF50"/>
<path d="M38.709 31.5747L28.834 41.4497L24.209 36.6997L21.459 39.4497L28.834 46.8247L41.459 34.1997L38.709 31.5747Z" fill="#DCEDC8"/>
</svg>
