<svg width="521" height="504" viewBox="0 0 521 504" fill="none" xmlns="http://www.w3.org/2000/svg">
<path d="M462.308 361.891L505.714 327.134L456.644 353.196L484.953 301.736L447.212 347.853L457.466 295.473L462.308 296.637L457.981 292.785L460.172 281.377L497.541 285.929L449.096 269.213L498.79 259.901H442.764L486.169 225.144L437.1 251.218L459.274 210.897L481.809 216.461L464.675 201.131L465.463 199.699L464.456 200.933L462.264 199.036L510.074 204.856C510.25 204.89 510.432 204.851 510.581 204.746C510.73 204.64 510.835 204.478 510.874 204.292C510.912 204.106 510.881 203.912 510.787 203.75C510.693 203.588 510.544 203.471 510.37 203.424L468.553 188.99L510.447 181.11C510.619 181.077 510.774 180.977 510.88 180.83C510.986 180.682 511.037 180.498 511.022 180.313C511.007 180.127 510.927 179.955 510.798 179.829C510.67 179.703 510.501 179.633 510.326 179.632H462.308L500.313 149.205C500.458 149.114 500.564 148.965 500.606 148.792C500.648 148.618 500.623 148.434 500.538 148.279C500.452 148.125 500.312 148.013 500.149 147.969C499.985 147.924 499.812 147.95 499.667 148.041L456.644 170.902L481.623 125.506C481.719 125.365 481.758 125.19 481.732 125.019C481.707 124.847 481.618 124.694 481.486 124.592C481.354 124.49 481.189 124.448 481.028 124.476C480.866 124.503 480.722 124.597 480.626 124.738L447.212 165.582L459.383 103.355C459.4 103.234 459.376 103.11 459.315 103.007C459.254 102.903 459.161 102.826 459.051 102.789C458.941 102.752 458.822 102.759 458.716 102.807C458.611 102.855 458.525 102.942 458.474 103.052L435.884 160.903L433.923 106.195C433.923 105.963 433.836 105.741 433.682 105.578C433.528 105.414 433.319 105.322 433.101 105.322C432.883 105.322 432.674 105.414 432.52 105.578C432.366 105.741 432.279 105.963 432.279 106.195L428.335 162.207L405.405 108.209C405.335 108.042 405.207 107.91 405.048 107.839C404.889 107.769 404.711 107.765 404.55 107.828C404.388 107.892 404.256 108.018 404.179 108.182C404.102 108.345 404.086 108.534 404.135 108.709L420.151 168.341L380.109 121.932L413.491 176.373L413.392 177.723L365.56 141.464L405.614 181.797L365.242 161.939C365.208 161.916 365.17 161.901 365.129 161.893C365.089 161.886 365.048 161.888 365.008 161.897C364.969 161.907 364.931 161.925 364.898 161.95C364.865 161.975 364.837 162.007 364.815 162.044C364.794 162.08 364.779 162.121 364.772 162.164C364.766 162.207 364.767 162.25 364.776 162.292C364.785 162.335 364.802 162.374 364.826 162.41C364.849 162.445 364.879 162.475 364.914 162.498L389.739 180.295L391.426 190.841L368.792 187.71C368.701 187.692 368.606 187.712 368.529 187.768C368.452 187.824 368.399 187.91 368.381 188.007C368.364 188.104 368.383 188.205 368.436 188.287C368.488 188.368 368.569 188.425 368.661 188.443L392.171 195.509L393.267 202.085L372.648 205.682L366.075 195.695L395.655 259.191L350.266 227.682L392.511 269.213L345.676 248.843L388.107 273.229L344.164 269.19L386.891 279.911L357.212 287.104L388.15 284.59L367.39 299.291L403.674 288.92L415.375 332.861C415.375 336.353 415.473 340.625 415.528 345.2L380.076 304.11L415.134 361.205L365.571 323.642L411.979 371.273L359.392 340.765L407.542 375.277L363.994 369.259L406.282 381.97L372.418 387.977L407.542 386.65L386.781 401.351L415.835 393.04C415.769 398.86 415.693 405.669 415.616 412.397C415.528 420.708 415.441 428.693 415.386 434.059H402.875C401.904 434.064 400.95 434.334 400.106 434.844C399.261 435.353 398.555 436.085 398.054 436.969L384.579 460.808C383.524 462.692 382.833 464.78 382.547 466.95C382.261 469.121 382.386 471.331 382.914 473.449L388.906 497.137C389.359 498.932 390.355 500.519 391.741 501.653C393.127 502.787 394.826 503.405 396.575 503.411H457.926C459.674 503.399 461.37 502.779 462.755 501.646C464.14 500.513 465.138 498.929 465.595 497.137L471.577 473.449C472.108 471.331 472.234 469.121 471.948 466.95C471.662 464.779 470.97 462.69 469.911 460.808L456.447 436.969C455.947 436.082 455.239 435.348 454.393 434.838C453.546 434.328 452.589 434.06 451.616 434.059H436.278C436.278 421.651 436.409 404.959 436.486 387.499L481.721 398.685L462.221 381.307L516.998 387.988L468.597 371.273L518.302 361.961L462.308 361.891ZM460.03 281.342L456.195 291.167L442.764 279.247L460.03 281.342ZM456.831 210.233L436.552 235.015C436.475 223.282 436.399 212.55 436.344 205.158L456.831 210.233ZM416.733 302.97C415.988 299.024 416.416 290.957 416.854 285.37L427.535 288.024C426.878 290.177 426.681 292.808 426.363 297.196C426.276 298.36 426.188 299.687 426.067 301.154C425.728 305.495 425.081 306.415 424.019 307.928C422.815 309.576 421.848 311.404 421.148 313.352C420.266 316.684 419.69 320.099 419.428 323.549L418.563 321.512C418.428 315.289 417.816 309.087 416.733 302.97ZM424.194 314.61C424.79 312.937 425.617 311.367 426.648 309.954C428.061 307.928 428.949 306.345 429.343 301.375C429.464 299.897 429.551 298.581 429.639 297.394C429.957 293.029 430.132 290.55 430.734 288.745L432.203 289.106L428.335 344.501L422.091 329.765C422.77 322.385 423.504 316.495 424.194 314.644V314.61ZM427.7 245.782L433.178 217.974C433.178 224.295 433.276 231.477 433.32 238.926L427.7 245.782ZM429.792 206.753L416.383 241.138L415.287 210.932L429.792 206.753ZM414.093 177.269L415.123 178.945L414.126 178.188L414.093 177.269ZM410.96 212.189L408.834 242.453L400.607 215.111L410.96 212.189ZM399.161 210.35L397.485 204.821L407.575 204.437L399.161 210.35ZM390.177 180.563L407.542 193.018L393.3 191.051L390.177 180.563ZM394.899 196.277L406.282 199.699L396.422 201.445L394.899 196.277ZM372.648 205.706L393.716 204.902L395.052 213.272L386.847 219.092L395.611 216.601L400.705 248.506L372.648 205.706ZM413.523 286.08C413.107 291.795 412.767 299.536 413.523 303.645C414.027 306.31 414.422 309.244 414.718 312.363L404.649 288.629L413.523 286.08ZM418.662 434.036C418.662 428.717 418.804 420.708 418.892 412.409C418.968 405.297 419.056 398.069 419.122 392.074L433.243 388.035C433.167 405.285 433.09 421.791 433.035 434.036H418.662ZM436.826 290.328L454.815 294.763L436.771 340.893C436.848 322.269 436.902 306.904 436.902 300.63C436.902 297.999 436.891 294.449 436.87 290.328H436.826Z" fill="#C7C7C7"/>
<path d="M389.632 100.061C412.926 100.061 431.811 79.9968 431.811 55.2467C431.811 30.4966 412.926 10.4326 389.632 10.4326C366.337 10.4326 347.453 30.4966 347.453 55.2467C347.453 79.9968 366.337 100.061 389.632 100.061Z" stroke="#263238" stroke-width="0.453401" stroke-miterlimit="10" stroke-linecap="round"/>
<path d="M389.632 95.7073C410.664 95.7073 427.714 77.5924 427.714 55.2466C427.714 32.9008 410.664 14.7859 389.632 14.7859C368.6 14.7859 351.551 32.9008 351.551 55.2466C351.551 77.5924 368.6 95.7073 389.632 95.7073Z" stroke="#263238" stroke-width="0.453401" stroke-miterlimit="10" stroke-linecap="round"/>
<path d="M404.74 60.2287L389.633 55.2467L407.523 27.6948" stroke="#263238" stroke-width="0.453401" stroke-miterlimit="10" stroke-linecap="round"/>
<path d="M389.632 57.5164C390.812 57.5164 391.769 56.5002 391.769 55.2466C391.769 53.993 390.812 52.9768 389.632 52.9768C388.453 52.9768 387.496 53.993 387.496 55.2466C387.496 56.5002 388.453 57.5164 389.632 57.5164Z" fill="#263238" stroke="#263238" stroke-width="0.453401" stroke-miterlimit="10"/>
<path d="M374.895 42.8502C379.161 42.8502 382.619 39.1761 382.619 34.644C382.619 30.1118 379.161 26.4377 374.895 26.4377C370.63 26.4377 367.172 30.1118 367.172 34.644C367.172 39.1761 370.63 42.8502 374.895 42.8502Z" stroke="#263238" stroke-width="0.453401" stroke-miterlimit="10" stroke-linecap="round"/>
<path d="M378.203 48.8446C378.203 49.1922 378.106 49.532 377.924 49.8211C377.743 50.1101 377.484 50.3354 377.182 50.4684C376.88 50.6014 376.547 50.6363 376.226 50.5684C375.905 50.5006 375.61 50.3332 375.379 50.0874C375.148 49.8416 374.99 49.5284 374.926 49.1875C374.862 48.8465 374.895 48.4931 375.02 48.1719C375.146 47.8508 375.358 47.5763 375.63 47.3831C375.902 47.19 376.222 47.0869 376.549 47.0869C376.766 47.0869 376.981 47.1324 377.182 47.2207C377.383 47.309 377.565 47.4385 377.719 47.6017C377.872 47.7649 377.994 47.9587 378.077 48.1719C378.16 48.3852 378.203 48.6137 378.203 48.8446Z" stroke="#263238" stroke-width="0.453401" stroke-miterlimit="10" stroke-linecap="round"/>
<path d="M35.1893 54.6646H252.558V502.84H22.207V54.6646H28.6708" stroke="#263238" stroke-width="0.453401" stroke-miterlimit="10"/>
<path d="M245.578 64.3608H175.77V493.133H245.578V64.3608Z" stroke="#263238" stroke-width="0.453401" stroke-miterlimit="10"/>
<path d="M167.782 64.3608H101.973V493.133H167.782V64.3608Z" stroke="#263238" stroke-width="0.453401" stroke-miterlimit="10"/>
<path d="M94 180.982V173.195" stroke="#263238" stroke-width="0.453401" stroke-miterlimit="10"/>
<path d="M93.9964 166.269V64.3606H29.1836V493.132H93.9964V190.503" stroke="#263238" stroke-width="0.453401" stroke-miterlimit="10"/>
<path d="M132.27 502.933V233.746C132.27 232.351 132.528 230.97 133.031 229.681C133.534 228.392 134.271 227.221 135.2 226.236C136.129 225.25 137.232 224.468 138.445 223.935C139.658 223.402 140.959 223.129 142.272 223.13H305.827C308.477 223.13 311.018 224.249 312.892 226.24C314.765 228.23 315.818 230.931 315.818 233.746V502.514" stroke="#263238" stroke-width="1.8136" stroke-linejoin="round"/>
<path d="M326.025 272.158L321.205 268.666C314.22 263.391 308.778 256.129 305.505 247.714L301.441 237.75H295.054L291.033 247.714C287.76 256.129 282.318 263.391 275.334 268.666L270.513 272.158C269.123 273.248 268 274.676 267.237 276.323C266.475 277.97 266.095 279.787 266.131 281.622H330.298C330.346 279.797 329.984 277.986 329.24 276.34C328.497 274.694 327.395 273.26 326.025 272.158ZM300.082 277.431H272.507C272.507 274.289 277.229 271.379 279.081 269.784L282.367 266.909C287.352 262.413 291.106 256.575 293.235 250.007L296.018 241.941H300.4L303.183 250.007C305.312 256.579 309.07 262.417 314.062 266.909L317.348 269.784C319.222 271.379 323.845 274.289 323.845 277.431H300.082Z" fill="white" stroke="#263238" stroke-width="0.453401" stroke-linecap="round" stroke-linejoin="round"/>
<path d="M298.256 237.587V230.277C298.256 230.277 302.189 227.146 302.189 222.618C302.189 218.09 298.902 216.344 295.309 217.741" stroke="#263238" stroke-width="0.453401" stroke-linecap="round" stroke-linejoin="round"/>
<path d="M279.926 261.124C279.926 261.124 287.233 270.075 296.425 270.226C306.175 270.389 317.635 261.321 317.635 261.321C320.247 263.717 323.094 265.808 326.125 267.56C331.231 270.517 334.594 274.847 337.267 282.355C340.258 290.724 346.842 313.48 346.842 313.48L327.867 314.458L330.464 360.203H267.338L271.611 313.643H253.238C253.238 313.643 259.34 282.89 262.134 276.977C264.928 271.064 279.926 261.124 279.926 261.124Z" fill="white" stroke="#263238" stroke-width="0.453401" stroke-linecap="round" stroke-linejoin="round"/>
<path d="M271.609 313.597L272.573 289.153" stroke="#263238" stroke-width="0.453401" stroke-linecap="round" stroke-linejoin="round"/>
<path d="M327.869 314.458L326.379 290.724" stroke="#263238" stroke-width="0.453401" stroke-linecap="round" stroke-linejoin="round"/>
<path d="M316.2 272.158L311.38 268.666C304.395 263.391 298.953 256.129 295.68 247.714L291.66 237.75H285.273L281.252 247.714C277.982 256.131 272.54 263.394 265.553 268.666L260.732 272.158C259.342 273.248 258.219 274.676 257.456 276.323C256.694 277.97 256.314 279.787 256.35 281.622H320.516C320.56 279.793 320.19 277.98 319.44 276.333C318.689 274.687 317.578 273.255 316.2 272.158ZM290.257 277.431H262.682C262.682 274.289 267.404 271.379 269.256 269.784L272.597 266.909C277.582 262.413 281.335 256.575 283.465 250.007L286.248 241.941H290.63L293.412 250.007C295.542 256.579 299.3 262.417 304.291 266.909L307.578 269.784C309.451 271.379 314.075 274.289 314.075 277.431H290.257Z" fill="white" stroke="#263238" stroke-width="0.453401" stroke-linecap="round" stroke-linejoin="round"/>
<path d="M288.428 237.587V230.277C288.428 230.277 292.361 227.146 292.361 222.618C292.361 218.09 289.074 216.344 285.48 217.741" stroke="#263238" stroke-width="0.453401" stroke-linecap="round" stroke-linejoin="round"/>
<path d="M270.099 261.124C270.099 261.124 277.407 270.075 286.598 270.226C296.349 270.389 307.808 261.321 307.808 261.321C310.421 263.717 313.267 265.808 316.299 267.56C321.415 270.517 324.767 274.847 327.441 282.355C330.431 290.724 337.027 313.48 337.027 313.48L318.041 314.458L320.637 360.203H257.512L261.784 313.643H243.379C243.379 313.643 249.47 282.809 252.253 276.989C255.036 271.169 270.099 261.124 270.099 261.124Z" fill="#6B6B6B" stroke="#263238" stroke-width="0.453401" stroke-linecap="round" stroke-linejoin="round"/>
<path d="M261.785 313.597L262.749 289.153" stroke="#263238" stroke-width="0.453401" stroke-linecap="round" stroke-linejoin="round"/>
<path d="M318.041 314.458L316.551 290.724" stroke="#263238" stroke-width="0.453401" stroke-linecap="round" stroke-linejoin="round"/>
<path d="M261.905 248.203L279.007 249.076V326.901H258.695L261.905 248.203Z" fill="white" stroke="#263238" stroke-width="0.453401" stroke-linecap="round" stroke-linejoin="round"/>
<path d="M298.934 270.564L294.114 267.072C287.126 261.797 281.681 254.535 278.404 246.12L274.394 236.156H268.007L263.986 246.12C260.713 254.534 255.272 261.797 248.287 267.072L243.467 270.564C242.077 271.653 240.953 273.081 240.191 274.728C239.428 276.375 239.049 278.192 239.084 280.027H303.251C303.294 278.198 302.925 276.385 302.174 274.739C301.423 273.092 300.312 271.661 298.934 270.564ZM272.959 275.825H245.417C245.417 272.682 250.127 269.772 251.99 268.166L255.277 265.302C260.265 260.808 264.022 254.97 266.155 248.401L268.938 240.335H273.32L276.103 248.401C278.25 254.996 282.035 260.852 287.059 265.349L290.4 268.212C292.262 269.819 296.897 272.729 296.897 275.872L272.959 275.825Z" fill="white" stroke="#263238" stroke-width="0.453401" stroke-linecap="round" stroke-linejoin="round"/>
<path d="M271.162 235.993V228.683C271.162 228.683 275.095 225.54 275.095 221.012C275.095 216.484 271.808 214.75 268.215 216.135" stroke="#263238" stroke-width="0.453401" stroke-linecap="round" stroke-linejoin="round"/>
<path d="M261.906 248.203L269.323 317.659L278.438 246.119C278.438 246.119 293.962 262.997 299.067 265.907C304.173 268.817 308.818 272.822 310.209 280.702C311.6 288.582 318.974 367.502 318.974 367.502L301.795 368.491L303.373 413.177H234.057L238.231 366.617H221.984C221.984 366.617 232.195 281.307 234.978 275.382C237.76 269.458 261.906 248.203 261.906 248.203Z" fill="white" stroke="#263238" stroke-width="0.453401" stroke-linecap="round" stroke-linejoin="round"/>
<path d="M261.903 248.203L271.018 322.28L268.827 325.365L248.516 261.403C248.516 261.403 254.947 250.415 261.903 248.203Z" fill="white" stroke="#263238" stroke-width="0.453401" stroke-linecap="round" stroke-linejoin="round"/>
<path d="M278.437 246.12L265.98 343.896L294.235 260.693C294.235 260.693 278.316 244.478 278.437 246.12Z" fill="white" stroke="#263238" stroke-width="0.453401" stroke-linecap="round" stroke-linejoin="round"/>
<path d="M234.974 275.324C234.974 275.324 221.707 343.849 218.804 360.041C215.901 376.232 214.422 402.422 214.422 402.422L239.806 403.19L247.058 287.605" fill="white"/>
<path d="M234.974 275.324C234.974 275.324 221.707 343.849 218.804 360.041C215.901 376.232 214.422 402.422 214.422 402.422L239.806 403.19L247.058 287.605" stroke="#263238" stroke-width="0.453401" stroke-linecap="round" stroke-linejoin="round"/>
<path d="M308.521 275.324C308.521 275.324 321.789 343.849 324.692 360.041C327.595 376.232 329.074 402.422 329.074 402.422L303.69 403.19L296.438 287.605" fill="white"/>
<path d="M308.521 275.324C308.521 275.324 321.789 343.849 324.692 360.041C327.595 376.232 329.074 402.422 329.074 402.422L303.69 403.19L296.438 287.605" stroke="#263238" stroke-width="0.453401" stroke-linecap="round" stroke-linejoin="round"/>
<path d="M265.945 343.849V413.98" stroke="#263238" stroke-width="0.453401" stroke-linecap="round" stroke-linejoin="round"/>
<path d="M271.862 272.158L267.041 268.666C260.06 263.387 254.619 256.126 251.342 247.714L247.321 237.75H240.967L236.946 247.714C233.669 256.126 228.228 263.387 221.247 268.666L216.416 272.158C215.026 273.248 213.902 274.676 213.14 276.323C212.377 277.969 211.998 279.787 212.034 281.622H276.244C276.28 279.787 275.9 277.969 275.138 276.323C274.375 274.676 273.252 273.248 271.862 272.158ZM245.919 277.431H218.366C218.366 274.288 223.088 271.378 224.939 269.784L228.226 266.908C233.214 262.417 236.969 256.577 239.094 250.007L241.876 241.941H246.259L249.052 250.007C251.177 256.577 254.932 262.417 259.92 266.908L263.262 269.784C265.124 271.378 269.747 274.288 269.747 277.431H245.919Z" fill="white" stroke="#263238" stroke-width="0.453401" stroke-linecap="round" stroke-linejoin="round"/>
<path d="M244.111 237.587V230.277C244.111 230.277 248.044 227.146 248.044 222.618C248.044 218.09 244.757 216.344 241.164 217.741" stroke="#263238" stroke-width="0.453401" stroke-linecap="round" stroke-linejoin="round"/>
<path d="M234.856 249.798L242.284 272.484L251.366 247.714C251.366 247.714 266.89 264.592 271.995 267.502C277.101 270.412 281.735 274.405 283.126 282.297C284.518 290.189 291.945 369.085 291.945 369.085L274.778 370.074L276.323 414.702H207.007L211.181 368.142H194.945C194.945 368.142 205.156 282.809 207.939 276.989C210.721 271.169 234.856 249.798 234.856 249.798Z" fill="#263238" stroke="#263238" stroke-width="0.453401" stroke-linecap="round" stroke-linejoin="round"/>
<path d="M227.898 255.222L232.072 279.387L240.892 263.615L235.326 246.841L227.898 255.222Z" fill="white" stroke="#263238" stroke-width="0.453401" stroke-linecap="round" stroke-linejoin="round"/>
<path d="M251.367 247.714L243.676 264.103L251.564 280.376L258.071 253.255L251.367 247.714Z" fill="white" stroke="#263238" stroke-width="0.453401" stroke-linecap="round" stroke-linejoin="round"/>
<path d="M274.776 370.132L271.062 295.17" stroke="#263238" stroke-width="0.453401" stroke-linecap="round" stroke-linejoin="round"/>
<path d="M211.18 368.165L217.687 295.17" stroke="#263238" stroke-width="0.453401" stroke-linecap="round" stroke-linejoin="round"/>
<path d="M246.743 272.158L241.912 268.666C234.93 263.388 229.49 256.126 226.212 247.714L222.192 237.75H215.816L211.795 247.714C208.518 256.126 203.077 263.388 196.096 268.666L191.275 272.158C189.884 273.247 188.76 274.675 187.997 276.322C187.234 277.969 186.856 279.787 186.893 281.622H251.049C251.093 279.794 250.726 277.981 249.977 276.335C249.228 274.689 248.119 273.257 246.743 272.158ZM220.8 277.431H193.225C193.225 274.289 197.936 271.379 199.799 269.784L203.14 266.909C208.128 262.417 211.883 256.578 214.008 250.007L216.791 241.941H221.173L223.956 250.007C226.081 256.578 229.835 262.417 234.824 266.909L238.165 269.784C240.027 271.379 244.651 274.289 244.651 277.431H220.8Z" fill="white" stroke="#263238" stroke-width="0.453401" stroke-linecap="round" stroke-linejoin="round"/>
<path d="M218.97 237.587V230.277C218.97 230.277 222.903 227.146 222.903 222.618C222.903 218.09 219.616 216.344 216.012 217.741" stroke="#263238" stroke-width="0.453401" stroke-linecap="round" stroke-linejoin="round"/>
<path d="M209.704 249.798L217.088 272.484L226.17 247.714C226.17 247.714 241.694 264.592 246.799 267.502C251.905 270.412 256.55 274.405 257.941 282.297C259.332 290.189 266.705 369.085 266.705 369.085L249.626 370.109L251.181 414.737H181.855L186.04 368.177H169.793C169.793 368.177 180.004 282.809 182.786 276.989C185.569 271.169 209.704 249.798 209.704 249.798Z" fill="#6B6B6B" stroke="#263238" stroke-width="0.453401" stroke-linecap="round" stroke-linejoin="round"/>
<path d="M202.746 255.222L206.92 279.387L215.739 263.615L210.174 246.841L202.746 255.222Z" fill="white" stroke="#263238" stroke-width="0.453401" stroke-linecap="round" stroke-linejoin="round"/>
<path d="M226.21 247.714L218.52 264.103L226.418 280.376L232.915 253.255L226.21 247.714Z" fill="white" stroke="#263238" stroke-width="0.453401" stroke-linecap="round" stroke-linejoin="round"/>
<path d="M249.624 370.132L245.91 295.17" stroke="#263238" stroke-width="0.453401" stroke-linecap="round" stroke-linejoin="round"/>
<path d="M186.039 368.165L192.536 295.17" stroke="#263238" stroke-width="0.453401" stroke-linecap="round" stroke-linejoin="round"/>
<path d="M223.551 272.158L218.731 268.666C211.746 263.391 206.305 256.129 203.032 247.714L199.011 237.75H192.624L188.603 247.714C185.33 256.129 179.889 263.391 172.904 268.666L168.084 272.158C166.694 273.248 165.57 274.676 164.808 276.323C164.045 277.969 163.666 279.787 163.702 281.622H227.868C227.911 279.793 227.542 277.979 226.791 276.333C226.04 274.687 224.929 273.255 223.551 272.158ZM197.609 277.431H170.034C170.034 274.288 174.745 271.378 176.607 269.784L179.949 266.908C184.925 262.41 188.671 256.572 190.795 250.007L193.577 241.941H197.959L200.742 250.007C202.871 256.578 206.63 262.417 211.621 266.908L214.908 269.784C216.781 271.378 221.404 274.288 221.404 277.431H197.609Z" fill="white" stroke="#263238" stroke-width="0.453401" stroke-linecap="round" stroke-linejoin="round"/>
<path d="M195.779 237.587V230.277C195.779 230.277 199.712 227.146 199.712 222.618C199.712 218.09 196.425 216.344 192.832 217.741" stroke="#263238" stroke-width="0.453401" stroke-linecap="round" stroke-linejoin="round"/>
<path d="M177.449 261.124C177.449 261.124 184.757 270.075 193.948 270.226C203.699 270.389 215.158 261.321 215.158 261.321C217.774 263.718 220.624 265.809 223.66 267.56C228.765 270.517 232.128 274.847 234.802 282.355C237.792 290.724 244.377 313.48 244.377 313.48L225.402 314.458L227.998 360.203H164.862L169.134 313.643H150.707C150.707 313.643 156.831 282.809 159.603 276.989C162.375 271.169 177.449 261.124 177.449 261.124Z" fill="#A1A1A1" stroke="#263238" stroke-width="0.453401" stroke-linecap="round" stroke-linejoin="round"/>
<path d="M169.133 313.597L170.097 289.153" stroke="#263238" stroke-width="0.453401" stroke-linecap="round" stroke-linejoin="round"/>
<path d="M225.388 314.458L223.898 290.724" stroke="#263238" stroke-width="0.453401" stroke-linecap="round" stroke-linejoin="round"/>
<path d="M206.196 272.158L201.376 268.666C194.391 263.391 188.949 256.129 185.676 247.714L181.656 237.75H175.269L171.248 247.714C167.975 256.129 162.533 263.391 155.549 268.666L150.728 272.158C149.338 273.248 148.215 274.676 147.452 276.323C146.69 277.97 146.31 279.787 146.346 281.622H210.512C210.556 279.793 210.187 277.98 209.436 276.333C208.685 274.687 207.574 273.255 206.196 272.158ZM180.253 277.431H152.678C152.678 274.289 157.389 271.379 159.252 269.784L162.538 266.909C167.53 262.417 171.288 256.579 173.417 250.007L176.2 241.941H180.582L183.365 250.007C185.494 256.575 189.248 262.413 194.233 266.909L197.574 269.784C199.436 271.379 204.071 274.289 204.071 277.431H180.253Z" fill="white" stroke="#263238" stroke-width="0.453401" stroke-linecap="round" stroke-linejoin="round"/>
<path d="M178.424 237.587V230.277C178.424 230.277 182.357 227.146 182.357 222.618C182.357 218.09 179.07 216.344 175.477 217.741" stroke="#263238" stroke-width="0.453401" stroke-linecap="round" stroke-linejoin="round"/>
<path d="M160.116 261.124C160.116 261.124 167.423 270.075 176.615 270.226C186.365 270.389 197.825 261.321 197.825 261.321C200.437 263.717 203.284 265.808 206.315 267.56C211.421 270.517 214.773 274.847 217.457 282.355C220.448 290.724 227.032 313.48 227.032 313.48L208.057 314.458L210.654 360.203H147.506L151.779 313.643H133.352C133.352 313.643 139.454 282.89 142.236 276.977C145.019 271.064 160.116 261.124 160.116 261.124Z" fill="white" stroke="#263238" stroke-width="0.453401" stroke-linecap="round" stroke-linejoin="round"/>
<path d="M151.781 313.597L152.745 289.153" stroke="#263238" stroke-width="0.453401" stroke-linecap="round" stroke-linejoin="round"/>
<path d="M208.037 314.458L206.547 290.724" stroke="#263238" stroke-width="0.453401" stroke-linecap="round" stroke-linejoin="round"/>
<path d="M224.752 502.933V233.746C224.752 232.351 224.493 230.97 223.99 229.681C223.487 228.392 222.75 227.221 221.821 226.236C220.892 225.25 219.79 224.468 218.576 223.935C217.363 223.402 216.062 223.129 214.749 223.13H51.1946C48.5447 223.13 46.0033 224.249 44.1295 226.24C42.2558 228.23 41.2031 230.931 41.2031 233.746V502.514" stroke="#263238" stroke-width="1.8136" stroke-linejoin="round"/>
<path d="M30.9615 272.158L35.782 268.666C42.7665 263.391 48.2081 256.129 51.4812 247.714L55.5019 237.75H61.8889L65.8987 247.714C69.1717 256.129 74.6134 263.391 81.5979 268.666L86.4183 272.158C87.8083 273.248 88.9318 274.676 89.6944 276.323C90.4569 277.97 90.8363 279.787 90.8005 281.622H26.6122C26.5727 279.79 26.947 277.975 27.7037 276.328C28.4605 274.682 29.5776 273.252 30.9615 272.158ZM56.9042 277.431H84.523C84.523 274.289 79.8012 271.379 77.9497 269.784L74.6631 266.909C69.6464 262.425 65.8615 256.586 63.7076 250.007L60.9249 241.941H56.5427L53.76 250.007C51.6309 256.579 47.8726 262.417 42.8811 266.909L39.5945 269.784C37.7211 271.379 33.0979 274.289 33.0979 277.431H56.9042Z" fill="white" stroke="#263238" stroke-width="0.453401" stroke-linecap="round" stroke-linejoin="round"/>
<path d="M58.7338 237.587V230.277C58.7338 230.277 54.8008 227.146 54.8008 222.618C54.8008 218.09 58.0874 216.344 61.6808 217.741" stroke="#263238" stroke-width="0.453401" stroke-linecap="round" stroke-linejoin="round"/>
<path d="M77.0632 261.124C77.0632 261.124 69.7558 270.075 60.5642 270.226C50.8138 270.389 39.3543 261.321 39.3543 261.321C36.7347 263.718 33.881 265.81 30.8419 267.56C25.7366 270.517 22.3733 274.847 19.7001 282.355C16.7093 290.724 10.125 313.48 10.125 313.48L29.0999 314.458L26.5035 360.203H89.651L85.3784 313.643H103.806C103.806 313.643 97.6705 282.809 94.9097 276.989C92.1489 271.169 77.0632 261.124 77.0632 261.124Z" fill="white" stroke="#263238" stroke-width="0.453401" stroke-linecap="round" stroke-linejoin="round"/>
<path d="M85.3781 313.597L84.4141 289.153" stroke="#263238" stroke-width="0.453401" stroke-linecap="round" stroke-linejoin="round"/>
<path d="M29.1211 314.458L30.611 290.724" stroke="#263238" stroke-width="0.453401" stroke-linecap="round" stroke-linejoin="round"/>
<path d="M40.7897 272.158L45.6101 268.666C52.5946 263.391 58.0363 256.129 61.3093 247.714L65.33 237.75H71.7171L75.7597 247.714C79.0327 256.129 84.4743 263.391 91.4589 268.666L96.2793 272.158C97.6693 273.248 98.7928 274.676 99.5553 276.323C100.318 277.97 100.697 279.787 100.662 281.622H36.4403C36.4008 279.79 36.7751 277.975 37.5319 276.328C38.2886 274.682 39.4057 273.252 40.7897 272.158ZM66.7323 277.431H94.3073C94.3073 274.289 89.5855 271.379 87.734 269.784L84.4474 266.909C79.4588 262.415 75.701 256.577 73.5686 250.007L70.7859 241.941H66.4036L63.6209 250.007C61.4919 256.579 57.7335 262.417 52.7421 266.909L49.4555 269.784C47.5821 271.379 42.9589 274.289 42.9589 277.431H66.7323Z" fill="white" stroke="#263238" stroke-width="0.453401" stroke-linecap="round" stroke-linejoin="round"/>
<path d="M68.5619 237.587V230.277C68.5619 230.277 64.6289 227.146 64.6289 222.618C64.6289 218.09 67.9156 216.344 71.509 217.741" stroke="#263238" stroke-width="0.453401" stroke-linecap="round" stroke-linejoin="round"/>
<path d="M86.8889 261.124C86.8889 261.124 79.5816 270.075 70.3899 270.226C60.6395 270.389 49.18 261.321 49.18 261.321C46.5708 263.716 43.7281 265.808 40.7005 267.56C35.5843 270.517 32.2319 274.847 29.5587 282.355C26.5679 290.724 19.9727 313.48 19.9727 313.48L38.9586 314.458L36.3183 360.203H99.4439L95.1713 313.643H113.598C113.598 313.643 107.529 282.809 104.735 276.989C101.942 271.169 86.8889 261.124 86.8889 261.124Z" fill="#6B6B6B" stroke="#263238" stroke-width="0.453401" stroke-linecap="round" stroke-linejoin="round"/>
<path d="M95.2063 313.597L94.2422 289.153" stroke="#263238" stroke-width="0.453401" stroke-linecap="round" stroke-linejoin="round"/>
<path d="M38.9492 314.458L40.4392 290.724" stroke="#263238" stroke-width="0.453401" stroke-linecap="round" stroke-linejoin="round"/>
<path d="M95.0859 248.203L77.9844 249.076V326.901H98.2959L95.0859 248.203Z" fill="white" stroke="#263238" stroke-width="0.453401" stroke-linecap="round" stroke-linejoin="round"/>
<path d="M58.0553 270.564L62.8757 267.072C69.8635 261.797 75.3088 254.535 78.5859 246.12L82.5956 236.156H88.9827L93.0034 246.12C96.2764 254.534 101.718 261.797 108.703 267.072L113.523 270.564C114.913 271.653 116.036 273.081 116.799 274.728C117.562 276.375 117.941 278.192 117.905 280.027H53.706C53.6664 278.195 54.0407 276.38 54.7975 274.733C55.5542 273.087 56.6714 271.657 58.0553 270.564ZM83.9979 275.825H111.573C111.573 272.682 106.862 269.772 105 268.166L101.713 265.302C96.7248 260.808 92.9671 254.97 90.8342 248.401L88.0515 240.335H83.6693L80.8866 248.401C78.7396 254.996 74.9542 260.852 69.9311 265.349L66.5896 268.212C64.7272 269.819 60.093 272.729 60.093 275.872L83.9979 275.825Z" fill="white" stroke="#263238" stroke-width="0.453401" stroke-linecap="round" stroke-linejoin="round"/>
<path d="M85.8276 235.993V228.683C85.8276 228.683 81.8945 225.54 81.8945 221.012C81.8945 216.484 85.1812 214.75 88.7746 216.135" stroke="#263238" stroke-width="0.453401" stroke-linecap="round" stroke-linejoin="round"/>
<path d="M95.0852 248.203L87.6683 317.659L78.5862 246.119C78.5862 246.119 63.0622 262.997 57.9569 265.907C52.8517 268.817 48.2065 272.822 46.8152 280.702C45.4238 288.582 38.0508 367.502 38.0508 367.502L55.229 368.491L53.6186 413.177H122.934L118.76 366.617H135.007C135.007 366.617 124.797 281.307 122.014 275.382C119.231 269.458 95.0852 248.203 95.0852 248.203Z" fill="white" stroke="#263238" stroke-width="0.453401" stroke-linecap="round" stroke-linejoin="round"/>
<path d="M95.0837 248.203L85.9688 322.28L88.1599 325.365L108.471 261.403C108.471 261.403 102.051 250.415 95.0837 248.203Z" fill="white" stroke="#263238" stroke-width="0.453401" stroke-linecap="round" stroke-linejoin="round"/>
<path d="M78.5846 246.12L91.041 343.896L62.7539 260.693C62.7539 260.693 78.6723 244.478 78.5846 246.12Z" fill="white" stroke="#263238" stroke-width="0.453401" stroke-linecap="round" stroke-linejoin="round"/>
<path d="M122.014 275.324C122.014 275.324 135.281 343.849 138.184 360.041C141.087 376.232 142.566 402.422 142.566 402.422L117.182 403.19L109.93 287.605" fill="white"/>
<path d="M122.014 275.324C122.014 275.324 135.281 343.849 138.184 360.041C141.087 376.232 142.566 402.422 142.566 402.422L117.182 403.19L109.93 287.605" stroke="#263238" stroke-width="0.453401" stroke-linecap="round" stroke-linejoin="round"/>
<path d="M48.4705 275.324C48.4705 275.324 35.2253 343.849 32.3002 360.041C29.3751 376.232 27.918 402.422 27.918 402.422L53.3019 403.19L60.5544 287.605" fill="white"/>
<path d="M48.4705 275.324C48.4705 275.324 35.2253 343.849 32.3002 360.041C29.3751 376.232 27.918 402.422 27.918 402.422L53.3019 403.19L60.5544 287.605" stroke="#263238" stroke-width="0.453401" stroke-linecap="round" stroke-linejoin="round"/>
<path d="M91.043 343.849V413.98" stroke="#263238" stroke-width="0.453401" stroke-linecap="round" stroke-linejoin="round"/>
<path d="M85.1061 272.158L89.9265 268.666C96.9078 263.388 102.349 256.126 105.626 247.714L109.646 237.75H116.023L120.043 247.714C123.32 256.13 128.766 263.392 135.753 268.666L140.574 272.158C141.964 273.248 143.087 274.676 143.85 276.323C144.612 277.97 144.992 279.787 144.956 281.622H80.7567C80.7172 279.79 81.0915 277.975 81.8483 276.328C82.605 274.682 83.7221 273.252 85.1061 272.158ZM111.049 277.431H138.624C138.624 274.289 133.902 271.379 132.05 269.784L128.709 266.909C123.724 262.413 119.971 256.575 117.841 250.007L115.058 241.941H110.676L107.883 250.007C105.758 256.578 102.003 262.417 97.0147 266.909L93.7281 269.784C91.8656 271.379 87.2424 274.289 87.2424 277.431H111.049Z" fill="white" stroke="#263238" stroke-width="0.453401" stroke-linecap="round" stroke-linejoin="round"/>
<path d="M112.874 237.587V230.277C112.874 230.277 108.941 227.146 108.941 222.618C108.941 218.09 112.228 216.344 115.821 217.741" stroke="#263238" stroke-width="0.453401" stroke-linecap="round" stroke-linejoin="round"/>
<path d="M122.136 249.798L114.708 272.484L105.626 247.714C105.626 247.714 90.102 264.592 84.9968 267.502C79.8915 270.412 75.2573 274.405 73.866 282.297C72.4746 290.189 65.1016 369.085 65.1016 369.085L82.2689 370.074L80.7241 414.702H150.04L145.866 368.142H162.113C162.113 368.142 151.836 282.809 149.054 276.989C146.271 271.169 122.136 249.798 122.136 249.798Z" fill="#263238" stroke="#263238" stroke-width="0.453401" stroke-linecap="round" stroke-linejoin="round"/>
<path d="M129.091 255.222L124.917 279.387L116.098 263.615L121.674 246.841L129.091 255.222Z" fill="white" stroke="#263238" stroke-width="0.453401" stroke-linecap="round" stroke-linejoin="round"/>
<path d="M105.623 247.714L113.314 264.103L105.426 280.376L98.918 253.255L105.623 247.714Z" fill="white" stroke="#263238" stroke-width="0.453401" stroke-linecap="round" stroke-linejoin="round"/>
<path d="M82.2109 370.132L85.9249 295.17" stroke="#263238" stroke-width="0.453401" stroke-linecap="round" stroke-linejoin="round"/>
<path d="M145.808 368.165L139.301 295.17" stroke="#263238" stroke-width="0.453401" stroke-linecap="round" stroke-linejoin="round"/>
<path d="M110.247 272.158L115.078 268.666C122.059 263.388 127.5 256.126 130.777 247.714L134.798 237.75H141.174L145.195 247.714C148.472 256.126 153.913 263.388 160.894 268.666L165.714 272.158C167.106 273.247 168.23 274.675 168.993 276.322C169.756 277.969 170.134 279.787 170.097 281.622H105.897C105.858 279.79 106.232 277.975 106.989 276.328C107.746 274.682 108.863 273.252 110.247 272.158ZM136.189 277.431H163.764C163.764 274.289 159.054 271.379 157.191 269.784L153.85 266.909C148.861 262.417 145.107 256.578 142.982 250.007L140.199 241.941H135.817L133.034 250.007C130.909 256.578 127.155 262.417 122.166 266.909L118.88 269.784C117.017 271.379 112.394 274.289 112.394 277.431H136.189Z" fill="white" stroke="#263238" stroke-width="0.453401" stroke-linecap="round" stroke-linejoin="round"/>
<path d="M138.019 237.587V230.277C138.019 230.277 134.086 227.146 134.086 222.618C134.086 218.09 137.373 216.344 140.977 217.741" stroke="#263238" stroke-width="0.453401" stroke-linecap="round" stroke-linejoin="round"/>
<path d="M147.288 249.798L139.86 272.484L130.778 247.714C130.778 247.714 115.254 264.592 110.148 267.502C105.043 270.412 100.398 274.405 99.0066 282.297C97.6152 290.189 90.2422 369.085 90.2422 369.085L107.42 370.074L105.865 414.702H175.191L171.006 368.142H187.253C187.253 368.142 176.988 282.809 174.205 276.989C171.423 271.169 147.288 249.798 147.288 249.798Z" fill="#6B6B6B" stroke="#263238" stroke-width="0.453401" stroke-linecap="round" stroke-linejoin="round"/>
<path d="M154.243 255.222L150.069 279.387L141.25 263.615L146.815 246.841L154.243 255.222Z" fill="white" stroke="#263238" stroke-width="0.453401" stroke-linecap="round" stroke-linejoin="round"/>
<path d="M130.779 247.714L138.47 264.103L130.571 280.376L124.074 253.255L130.779 247.714Z" fill="white" stroke="#263238" stroke-width="0.453401" stroke-linecap="round" stroke-linejoin="round"/>
<path d="M107.367 370.132L111.081 295.17" stroke="#263238" stroke-width="0.453401" stroke-linecap="round" stroke-linejoin="round"/>
<path d="M170.954 368.165L164.457 295.17" stroke="#263238" stroke-width="0.453401" stroke-linecap="round" stroke-linejoin="round"/>
<path d="M133.438 272.158L138.259 268.666C145.243 263.391 150.685 256.129 153.958 247.714L157.978 237.75H164.366L168.386 247.714C171.659 256.129 177.101 263.391 184.085 268.666L188.906 272.158C190.296 273.248 191.419 274.676 192.182 276.323C192.944 277.97 193.324 279.787 193.288 281.622H129.089C129.049 279.79 129.424 277.975 130.18 276.328C130.937 274.682 132.054 273.252 133.438 272.158ZM159.381 277.431H186.956C186.956 274.289 182.245 271.379 180.382 269.784L177.041 266.909C172.056 262.413 168.303 256.575 166.173 250.007L163.401 241.941H159.019L156.237 250.007C154.107 256.579 150.349 262.417 145.358 266.909L142.071 269.784C140.198 271.379 135.574 274.289 135.574 277.431H159.381Z" fill="white" stroke="#263238" stroke-width="0.453401" stroke-linecap="round" stroke-linejoin="round"/>
<path d="M161.21 237.587V230.277C161.21 230.277 157.277 227.146 157.277 222.618C157.277 218.09 160.564 216.344 164.157 217.741" stroke="#263238" stroke-width="0.453401" stroke-linecap="round" stroke-linejoin="round"/>
<path d="M179.541 261.124C179.541 261.124 172.234 270.075 163.042 270.226C153.292 270.389 141.832 261.321 141.832 261.321C139.22 263.717 136.373 265.808 133.342 267.56C128.237 270.517 124.873 274.847 122.2 282.355C119.209 290.724 112.625 313.48 112.625 313.48L131.6 314.458L129.003 360.203H192.129L187.856 313.643H206.284C206.284 313.643 200.181 282.809 197.366 276.989C194.55 271.169 179.541 261.124 179.541 261.124Z" fill="#A1A1A1" stroke="#263238" stroke-width="0.453401" stroke-linecap="round" stroke-linejoin="round"/>
<path d="M187.855 313.597L186.891 289.153" stroke="#263238" stroke-width="0.453401" stroke-linecap="round" stroke-linejoin="round"/>
<path d="M131.602 314.458L133.092 290.724" stroke="#263238" stroke-width="0.453401" stroke-linecap="round" stroke-linejoin="round"/>
<path d="M150.794 272.158L155.614 268.666C162.599 263.391 168.04 256.129 171.313 247.714L175.334 237.75H181.721L185.742 247.714C189.015 256.129 194.456 263.391 201.441 268.666L206.261 272.158C207.651 273.248 208.775 274.676 209.537 276.323C210.3 277.97 210.679 279.787 210.644 281.622H146.444C146.405 279.79 146.779 277.975 147.536 276.328C148.293 274.682 149.41 273.252 150.794 272.158ZM176.736 277.431H204.311C204.311 274.289 199.6 271.379 197.738 269.784L194.451 266.909C189.46 262.417 185.702 256.579 183.572 250.007L180.79 241.941H176.408L173.625 250.007C171.495 256.575 167.742 262.413 162.757 266.909L159.416 269.784C157.553 271.379 152.919 274.289 152.919 277.431H176.736Z" fill="white" stroke="#263238" stroke-width="0.453401" stroke-linecap="round" stroke-linejoin="round"/>
<path d="M178.566 237.587V230.277C178.566 230.277 174.633 227.146 174.633 222.618C174.633 218.09 177.919 216.344 181.513 217.741" stroke="#263238" stroke-width="0.453401" stroke-linecap="round" stroke-linejoin="round"/>
<path d="M196.897 261.124C196.897 261.124 189.589 270.075 180.398 270.226C170.647 270.389 159.188 261.321 159.188 261.321C156.575 263.717 153.729 265.808 150.697 267.56C145.592 270.517 142.24 274.847 139.556 282.355C136.576 290.724 129.98 313.48 129.98 313.48L148.955 314.458L146.359 360.203H209.485L205.212 313.643H223.661C223.661 313.643 217.537 282.809 214.754 276.989C211.971 271.169 196.897 261.124 196.897 261.124Z" fill="white" stroke="#263238" stroke-width="0.453401" stroke-linecap="round" stroke-linejoin="round"/>
<path d="M205.21 313.597L204.246 289.153" stroke="#263238" stroke-width="0.453401" stroke-linecap="round" stroke-linejoin="round"/>
<path d="M148.953 314.458L150.443 290.724" stroke="#263238" stroke-width="0.453401" stroke-linecap="round" stroke-linejoin="round"/>
<path d="M293.19 279.247C293.19 279.247 290.944 323.561 291.908 335.119C292.873 346.678 296.083 364.778 296.4 369.551C296.718 374.323 300.257 386.929 302.174 395.159C304.091 403.388 317.577 445.269 320.459 453.103C323.34 460.936 323.548 483.972 323.548 483.972C323.548 483.972 310.708 494.879 306.545 497.265C302.382 499.651 300.443 498.627 301.067 501.7C301.692 504.773 323.844 502.037 328.982 502.037C334.12 502.037 341.811 503.062 342.129 499.314C342.446 495.565 338.283 483.634 337.319 478.175C336.355 472.716 336.158 447.306 335.194 431.964C334.23 416.623 334.241 405.728 329.42 392.772C324.6 379.817 319.801 364.476 319.801 364.476L332.652 289.793L293.19 279.247Z" fill="white" stroke="#263238" stroke-width="0.453401" stroke-linecap="round" stroke-linejoin="round"/>
<path d="M322.65 473.508C322.047 468.107 319.527 457.479 318.454 452.02C316.821 443.779 304.102 403.33 302.174 395.147C300.246 386.964 296.696 374.346 296.4 369.539C296.104 364.732 292.873 346.701 291.908 335.108C290.944 323.514 293.19 279.236 293.19 279.236L332.63 289.805L319.801 364.452C319.801 364.452 324.611 379.794 329.42 392.749C334.23 405.704 334.241 416.611 335.194 431.941C335.939 443.791 335.917 463.648 336.662 472.332C332.166 474.008 327.337 474.414 322.65 473.508Z" fill="#263238" stroke="#263238" stroke-width="0.453401" stroke-linecap="round" stroke-linejoin="round"/>
<path d="M301.091 501.641C300.445 498.568 302.373 499.593 306.569 497.207C309.757 495.391 317.984 488.593 321.698 485.485C322.856 485.832 323.862 486.603 324.536 487.662C325.212 488.836 325.75 490.095 326.135 491.41L340.224 489.233C341.32 493.4 342.339 497.381 342.174 499.255C341.857 503.003 334.155 501.979 329.028 501.979C323.9 501.979 301.726 504.749 301.091 501.641Z" fill="#8AAC7C" stroke="#263238" stroke-width="0.453401" stroke-linecap="round" stroke-linejoin="round"/>
<path d="M362.168 284.707C362.168 284.707 359.922 306.182 352.549 325.61C345.176 345.037 338.044 372.868 338.044 372.868C338.044 372.868 351.311 389.106 354.203 403.761C357.096 418.415 358.586 445.257 358.958 448.656C359.331 452.055 362.168 463.66 366.627 468.444C371.086 473.228 374.646 474.264 372.729 477.989C370.812 481.714 360.218 496.054 358.29 498.441C356.362 500.827 348.342 502.526 344.815 502.526C341.287 502.526 343.533 502.526 345.132 496.706C346.732 490.886 348.66 474.893 348.66 469.783C348.66 464.673 342.886 445.583 336.477 433.99C330.068 422.396 320.428 391.038 317.546 383.542C314.665 376.046 310.809 369.911 310.809 365.139C310.809 360.367 314.336 314.691 314.983 306.508C315.629 298.325 316.582 289.13 316.582 289.13L363.099 280.26L362.168 284.707Z" fill="white" stroke="#263238" stroke-width="0.453401" stroke-linecap="round" stroke-linejoin="round"/>
<path d="M344.846 502.514C341.319 502.514 343.565 502.514 345.164 496.694C346.588 491.561 348.265 478.419 348.626 471.924C349.59 471.04 353.216 467.908 355.429 469.084C356.955 469.895 358.276 471.08 359.286 472.541L365.147 466.5C365.602 467.193 366.108 467.847 366.659 468.456C371.151 473.228 374.678 474.276 372.761 478C370.844 481.725 360.25 496.066 358.322 498.452C356.394 500.838 348.374 502.514 344.846 502.514Z" fill="#8AAC7C" stroke="#263238" stroke-width="0.453401" stroke-linecap="round" stroke-linejoin="round"/>
<path d="M315.015 306.52C315.65 298.372 316.614 289.141 316.614 289.141L366.341 279.736L367.437 287.884C367.437 287.884 366.615 302.737 359.242 322.176C351.869 341.614 338.054 372.88 338.054 372.88C338.054 372.88 351.321 389.117 354.213 403.772C357.106 418.427 358.596 445.269 358.968 448.668C359.39 451.61 360.076 454.502 361.017 457.305C356.848 459.98 352.169 461.635 347.322 462.147C345.23 453.999 341.034 442.173 336.52 434.013C330.1 422.373 320.47 391.061 317.589 383.565C314.708 376.069 310.852 369.935 310.852 365.162C310.852 360.39 314.368 314.703 315.015 306.52Z" fill="#263238" stroke="#263238" stroke-width="0.453401" stroke-linecap="round" stroke-linejoin="round"/>
<path d="M329.716 419.766C324.14 404.925 315.639 388.337 312.834 376.988C308.956 361.356 315.025 306.52 315.025 306.52" stroke="#7D7D7D" stroke-width="0.453401" stroke-linecap="round" stroke-linejoin="round"/>
<path d="M333.21 429.101L331.457 424.445" stroke="#7D7D7D" stroke-width="0.453401" stroke-linecap="round" stroke-linejoin="round"/>
<path d="M239.949 160.065C239.949 160.065 231.864 155.665 229.87 155.071C227.876 154.478 226.726 156.422 227.504 156.98C228.282 157.539 229.553 158.575 229.553 158.575C229.553 158.575 225.883 158.459 226.781 159.739L228.578 162.242C228.578 162.242 225.291 162.905 226.135 164.453C226.908 165.543 227.998 166.332 229.235 166.7C229.235 166.7 225.894 167.666 227.373 169.086C228.852 170.506 233.245 170.25 233.245 170.25C234.431 172.68 236.054 174.839 238.021 176.605C240.062 178.194 242.478 179.149 245 179.364L249.536 184.334L255.605 176.652L239.949 160.065Z" fill="white" stroke="#263238" stroke-width="0.453401" stroke-linecap="round" stroke-linejoin="round"/>
<path d="M172.461 153.407L178.454 150.357C187.152 145.797 194.465 138.725 199.554 129.952L205.755 119.558L206.434 119.674L212.23 120.664L212.898 120.78L215.714 132.723C217.966 142.754 222.834 151.908 229.759 159.134L234.612 164.081C235.98 165.571 236.992 167.387 237.564 169.378C238.135 171.368 238.25 173.476 237.899 175.523L204.857 169.866L199.061 168.877L166.02 163.22C166.275 161.155 166.993 159.186 168.114 157.478C169.235 155.771 170.726 154.374 172.461 153.407ZM200.617 164.279L204.638 164.966L231.512 169.622C232.037 166.13 227.25 161.939 225.431 159.786L222.145 155.933C217.321 149.942 214.108 142.68 212.843 134.911L211.09 125.343L210.619 125.273L206.61 124.586L206.128 124.505L201.647 133.002C198.144 139.954 192.945 145.776 186.594 149.857L182.376 152.429C180.01 153.861 174.335 156.236 173.798 159.751L200.617 164.279Z" fill="white" stroke="#263238" stroke-width="0.453401" stroke-linecap="round" stroke-linejoin="round"/>
<path d="M209.416 120L210.665 111.852C210.665 111.852 206.787 107.592 207.554 102.54C208.32 97.4882 212.297 96.138 216.099 98.3962" stroke="#263238" stroke-width="0.453401" stroke-linecap="round" stroke-linejoin="round"/>
<path d="M163.215 200.433L150.66 197.197C150.66 197.197 153.366 171.461 158.132 162.661C162.404 154.769 166.896 150.555 173.119 148.227C176.815 146.848 180.359 145.049 183.691 142.861C183.691 142.861 194.986 155.223 205.942 156.911C216.262 158.494 225.968 149.868 225.968 149.868C225.968 149.868 241.164 163.836 243.278 170.995C245.392 178.154 247.014 213.772 247.014 213.772L226.374 210.28L232.257 263.3L231.709 263.196L232.257 264.662C232.257 264.662 225.607 261.17 212.734 262.509C199.861 263.847 185.4 266.257 179.287 264.557C173.174 262.858 154.243 255.245 154.243 255.245L163.215 200.433Z" fill="#698E59" stroke="#263238" stroke-width="0.453401" stroke-linecap="round" stroke-linejoin="round"/>
<path d="M226.374 210.245L224.961 198.57" stroke="#263238" stroke-width="0.453401" stroke-linecap="round" stroke-linejoin="round"/>
<path d="M163.215 200.433L168.265 172.264" stroke="#263238" stroke-width="0.453401" stroke-linecap="round" stroke-linejoin="round"/>
<path d="M182.508 147.308C181.652 153.083 181.22 158.921 181.215 164.768" stroke="#263238" stroke-width="0.453401" stroke-linecap="round" stroke-linejoin="round"/>
<path d="M179.932 147.994C179.005 151.227 178.36 154.542 178.004 157.9" stroke="#263238" stroke-width="0.453401" stroke-linecap="round" stroke-linejoin="round"/>
<path d="M216.141 187.163C216.382 188.245 216.645 189.316 216.918 190.364" stroke="#263238" stroke-width="0.453401" stroke-linecap="round" stroke-linejoin="round"/>
<path d="M211.77 159.949C211.77 159.949 212.865 170.96 215.056 182.402" stroke="#263238" stroke-width="0.453401" stroke-linecap="round" stroke-linejoin="round"/>
<path d="M215.309 157.562C216.605 161.369 217.681 165.256 218.53 169.203" stroke="#263238" stroke-width="0.453401" stroke-linecap="round" stroke-linejoin="round"/>
<path d="M174.289 249.938L182.955 181.622" stroke="#263238" stroke-width="0.453401" stroke-linecap="round" stroke-linejoin="round"/>
<path d="M172.965 260.309L173.48 256.316" stroke="#263238" stroke-width="0.453401" stroke-linecap="round" stroke-linejoin="round"/>
<path d="M195.303 156.643L193.539 190.364" stroke="#263238" stroke-width="0.453401" stroke-linecap="round" stroke-linejoin="round"/>
<path d="M255.427 174.557C255.427 174.557 249.5 167.061 247.155 165.873C244.811 164.686 237.229 163.115 234.392 161.334C231.554 159.553 230.766 160.496 232.387 162.963C234.008 165.431 239.749 167.887 239.749 167.887C239.749 167.887 242.203 173.788 245.041 175.569L251.504 179.632L255.427 174.557Z" fill="white" stroke="#263238" stroke-width="0.453401" stroke-linecap="round" stroke-linejoin="round"/>
<path d="M313.229 174.033C313.229 174.033 301.923 174.033 300.258 177.211C298.593 180.388 291.286 199.466 288.295 204.821C285.304 210.175 285.304 211.525 285.304 211.525L255.056 172.229L244.473 181.808C244.473 181.808 279.706 243.966 282.368 245.025C285.03 246.085 301.31 231.954 303.304 230.894C305.298 229.835 316.275 178.98 316.275 178.98C316.275 178.98 318.872 176.151 313.229 174.033Z" fill="#8AAC7C" stroke="#263238" stroke-width="0.453401" stroke-linecap="round" stroke-linejoin="round"/>
<path d="M311.891 179.329L349.14 169.086C349.14 169.086 354.793 202.283 354.793 216.81C354.793 231.337 364.269 286.208 364.269 286.208C364.269 286.208 336.179 295.217 320.557 295.217C304.934 295.217 294.965 289.211 294.965 289.211C294.965 289.211 302.634 261.275 302.94 246.143C303.247 231.011 301.275 210.466 302.94 198.419C303.947 191.209 307.081 184.525 311.891 179.329Z" fill="white" stroke="#263238" stroke-width="0.453401" stroke-linecap="round" stroke-linejoin="round"/>
<path d="M308.266 227.624L319.9 244.933" stroke="#263238" stroke-width="0.453401" stroke-linecap="round" stroke-linejoin="round"/>
<path d="M320.34 251.416L321.939 253.895" stroke="#263238" stroke-width="0.453401" stroke-linecap="round" stroke-linejoin="round"/>
<path d="M311.762 238.135L318.423 248.459" stroke="#263238" stroke-width="0.453401" stroke-linecap="round" stroke-linejoin="round"/>
<path d="M301.924 188.164C301.924 188.164 300.927 192.052 299.602 198.407C298.276 204.763 298.605 209 299.262 224.19C299.919 239.38 299.262 243.606 294.606 255.269C289.95 266.932 277.176 296.847 277.176 296.847L288.811 308.149C288.811 308.149 299.262 279.631 303.25 261.973C307.238 244.316 306.92 219.953 308.235 207.94C309.549 195.928 320.538 176.885 320.538 176.885L322.86 172.648C319.732 173.612 316.488 174.086 313.23 174.056C310.316 173.962 307.404 174.319 304.586 175.116" fill="#8AAC7C"/>
<path d="M301.924 188.164C301.924 188.164 300.927 192.052 299.602 198.407C298.276 204.763 298.605 209 299.262 224.19C299.919 239.38 299.262 243.606 294.606 255.269C289.95 266.932 277.176 296.847 277.176 296.847L288.811 308.149C288.811 308.149 299.262 279.631 303.25 261.973C307.238 244.316 306.92 219.953 308.235 207.94C309.549 195.928 320.538 176.885 320.538 176.885L322.86 172.648C319.732 173.612 316.488 174.086 313.23 174.056C310.316 173.962 307.404 174.319 304.586 175.116" stroke="#263238" stroke-width="0.453401" stroke-linecap="round" stroke-linejoin="round"/>
<path d="M346.128 167.678C346.128 167.678 329.18 199.106 325.86 209.349C322.541 219.592 324.863 225.645 325.521 232.629C326.178 239.613 335.654 313.387 335.654 313.387C335.654 313.387 357.565 306.322 366.571 302.783C375.576 299.245 378.534 295.369 378.534 295.369C378.534 295.369 362.298 237.483 362.298 236.063C362.298 234.643 376.376 170.145 374.054 168.737C371.731 167.328 346.128 167.678 346.128 167.678Z" fill="#8AAC7C" stroke="#263238" stroke-width="0.453401" stroke-linecap="round" stroke-linejoin="round"/>
<path d="M310.459 165.245C310.459 165.245 310.919 176.71 308.848 182.088C307.884 184.947 306.313 187.532 304.258 189.642C304.258 189.642 313.439 184.765 316.89 180.866C319.505 177.623 321.813 174.114 323.781 170.39L317.58 158.924L310.459 165.245Z" fill="#263238" stroke="#263238" stroke-width="0.453401" stroke-linecap="round" stroke-linejoin="round"/>
<path d="M297.333 115.705C296.148 119.73 295.323 123.865 294.868 128.055C294.55 133.06 296.249 134.119 295.964 137.123C295.679 140.126 291.45 145.41 292.075 147.75C292.699 150.089 296.457 151.416 296.457 151.416C296.457 151.416 299.294 163.056 300.236 166.106C301.179 169.156 305.254 168.108 309.34 166.77C312.327 165.731 315.254 164.507 318.105 163.103L321.874 172.776L343.237 161.764L334.133 123.352C334.133 123.352 321.567 113.004 313.712 113.004L297.333 115.705Z" fill="white" stroke="#263238" stroke-width="0.453401" stroke-linecap="round" stroke-linejoin="round"/>
<path d="M318.07 163.103L323.23 159.46L320.163 166.292L318.07 163.103Z" fill="#263238" stroke="#263238" stroke-width="0.453401" stroke-linecap="round" stroke-linejoin="round"/>
<path d="M298.977 138.601C298.977 140.079 299.491 141.278 300.127 141.278C300.762 141.278 301.222 140.114 301.222 138.601C301.222 137.088 300.718 135.912 300.127 135.912C299.535 135.912 298.977 137.111 298.977 138.601Z" fill="#263238"/>
<path d="M304.028 133.223C304.028 133.223 301.037 127.613 297.137 131.035" stroke="#263238" stroke-width="0.453401" stroke-linecap="round" stroke-linejoin="round"/>
<path d="M307.005 152.01C307.005 152.01 303.905 156.224 300.355 154.21" stroke="#263238" stroke-width="0.453401" stroke-linecap="round" stroke-linejoin="round"/>
<path d="M331.808 179.096C331.808 179.096 331.183 179.69 326.987 181.296C321.104 183.531 319.176 182.03 319.176 182.03C318.188 177.671 317.41 173.261 316.843 168.818C316.613 165.163 317.588 165.745 323.777 164.698C330.69 163.534 341.153 159.017 342.763 159.017C344.374 159.017 345.36 158.843 345.36 161.043C345.36 163.243 347.43 171.286 347.43 171.286C342.487 174.449 337.252 177.066 331.808 179.096Z" fill="white" stroke="#263238" stroke-width="0.453401" stroke-linecap="round" stroke-linejoin="round"/>
<path d="M326.244 138.065C326.244 138.065 322.157 138.065 320.273 136.727C319.009 135.616 318.123 134.095 317.753 132.397C317.753 132.397 304.245 128.718 298.285 120.757C292.326 112.795 288.228 112.073 291.055 108.407C293.881 104.74 313.36 98.7222 319.649 96.0566C325.937 93.391 335.403 97.7328 344.167 105.357C352.931 112.981 352.658 114.029 353.907 123.713C355.155 133.398 363.646 167.107 363.646 167.107L354.882 169.109C354.882 169.109 349.853 179.795 340.749 185.126C331.645 190.457 326.299 191.144 326.299 191.144C326.299 191.144 333.518 174.115 333.518 159.425C333.518 144.735 326.244 138.065 326.244 138.065Z" fill="#263238" stroke="#263238" stroke-width="0.453401" stroke-linecap="round" stroke-linejoin="round"/>
<path d="M322.156 141.069C322.156 141.069 324.665 127.38 330.636 131.757C336.607 136.133 329.376 151.452 327.185 151.114C324.994 150.776 323.098 148.111 323.098 148.111" fill="white"/>
<path d="M322.156 141.069C322.156 141.069 324.665 127.38 330.636 131.757C336.607 136.133 329.376 151.452 327.185 151.114C324.994 150.776 323.098 148.111 323.098 148.111" stroke="#263238" stroke-width="0.453401" stroke-linecap="round" stroke-linejoin="round"/>
<path d="M439.677 186.313C439.677 186.313 449.252 184.276 451.487 184.276C453.722 184.276 454.358 186.604 453.393 186.988C452.429 187.373 450.841 188.013 450.841 188.013C450.841 188.013 454.675 189.025 453.393 190.038L450.841 192.075C450.841 192.075 454.04 193.775 452.758 195.125C451.66 196.014 450.315 196.493 448.935 196.487C448.935 196.487 452.123 198.524 450.205 199.536C448.288 200.549 443.818 198.861 443.818 198.861C441.918 201.002 439.645 202.729 437.125 203.948C434.573 204.958 431.807 205.192 429.138 204.623L423.047 208.313L418.895 198.477L439.677 186.313Z" fill="white" stroke="#263238" stroke-width="0.453401" stroke-linecap="round" stroke-linejoin="round"/>
<path d="M361.75 168.737C361.75 168.737 370.394 166.269 374.054 168.737C377.713 171.205 378.71 192.017 378.71 192.017L389.665 219.208L420.582 196.952L430.551 212.492C430.551 212.492 390.991 250.997 387.671 252.405C386.549 253.016 385.256 253.174 384.033 252.849C382.81 252.523 381.74 251.737 381.021 250.636C379.696 248.878 355.758 205.787 355.758 205.787" fill="#8AAC7C"/>
<path d="M361.75 168.737C361.75 168.737 370.394 166.269 374.054 168.737C377.713 171.205 378.71 192.017 378.71 192.017L389.665 219.208L420.582 196.952L430.551 212.492C430.551 212.492 390.991 250.997 387.671 252.405C386.549 253.016 385.256 253.174 384.033 252.849C382.81 252.523 381.74 251.737 381.021 250.636C379.696 248.878 355.758 205.787 355.758 205.787" stroke="#263238" stroke-width="0.453401" stroke-linecap="round" stroke-linejoin="round"/>
<path d="M456.637 207.521L437.234 208.511V296.812H460.274L456.637 207.521Z" fill="#8AAC7C" stroke="#263238" stroke-width="0.453401" stroke-linecap="round" stroke-linejoin="round"/>
<path d="M414.621 232.885L420.098 228.869C428.013 222.898 434.186 214.682 437.912 205.159L442.47 193.856H449.711L454.269 205.159C457.995 214.682 464.168 222.898 472.082 228.869L477.56 232.885C479.129 234.128 480.396 235.752 481.253 237.621C482.111 239.49 482.535 241.55 482.49 243.629H409.691C409.646 241.55 410.07 239.49 410.927 237.621C411.785 235.752 413.051 234.128 414.621 232.885ZM444.058 238.868H475.347C475.347 235.306 469.99 232.001 467.875 230.185L464.085 226.937C458.431 221.834 454.174 215.208 451.76 207.754L448.594 198.605H443.587L440.421 207.754C438.007 215.208 433.75 221.834 428.096 226.937L424.305 230.185C422.191 232.001 416.943 235.306 416.943 238.868H444.058Z" fill="white" stroke="#263238" stroke-width="0.453401" stroke-linecap="round" stroke-linejoin="round"/>
<path d="M446.131 193.67V185.37C446.131 185.37 441.672 181.809 441.672 176.675C441.672 171.542 445.386 169.563 449.483 171.146" stroke="#263238" stroke-width="0.453401" stroke-linecap="round" stroke-linejoin="round"/>
<path d="M456.635 207.521L448.243 286.301L437.944 205.147C437.944 205.147 420.339 224.295 414.543 227.659C408.748 231.022 403.478 235.492 401.901 244.443C400.323 253.395 391.898 342.918 391.898 342.918L411.377 344.082L409.624 394.704H488.23L483.497 341.847H501.925C501.925 341.847 490.345 245.049 487.179 238.332C484.012 231.616 456.635 207.521 456.635 207.521Z" fill="#698E59" stroke="#263238" stroke-width="0.453401" stroke-linecap="round" stroke-linejoin="round"/>
<path d="M456.635 207.521L446.293 291.562L448.758 295.054L471.765 222.502C471.765 222.502 464.523 210.036 456.635 207.521Z" fill="#263238" stroke="#263238" stroke-width="0.453401" stroke-linecap="round" stroke-linejoin="round"/>
<path d="M437.913 205.159L452.046 316.041L419.957 221.618C419.957 221.618 438.012 203.296 437.913 205.159Z" fill="#263238" stroke="#263238" stroke-width="0.453401" stroke-linecap="round" stroke-linejoin="round"/>
<path d="M487.18 238.298C487.18 238.298 502.243 316.041 505.53 334.398C508.817 352.754 510.471 382.483 510.471 382.483L481.669 383.356L473.441 252.219" fill="#698E59"/>
<path d="M487.18 238.298C487.18 238.298 502.243 316.041 505.53 334.398C508.817 352.754 510.471 382.483 510.471 382.483L481.669 383.356L473.441 252.219" stroke="#263238" stroke-width="0.453401" stroke-linecap="round" stroke-linejoin="round"/>
<path d="M481.154 385.521H511.117C511.801 385.521 512.355 384.932 512.355 384.205V375.149C512.355 374.423 511.801 373.834 511.117 373.834H481.154C480.47 373.834 479.916 374.423 479.916 375.149V384.205C479.916 384.932 480.47 385.521 481.154 385.521Z" fill="#263238" stroke="#263238" stroke-width="0.453401" stroke-linecap="round" stroke-linejoin="round"/>
<path d="M403.741 238.298C403.741 238.298 388.689 316.041 385.402 334.398C382.115 352.754 380.461 382.483 380.461 382.483L409.263 383.356L417.491 252.219" fill="#698E59"/>
<path d="M403.741 238.298C403.741 238.298 388.689 316.041 385.402 334.398C382.115 352.754 380.461 382.483 380.461 382.483L409.263 383.356L417.491 252.219" stroke="#263238" stroke-width="0.453401" stroke-linecap="round" stroke-linejoin="round"/>
<path d="M379.596 385.521H409.559C410.243 385.521 410.797 384.932 410.797 384.205V375.149C410.797 374.423 410.243 373.834 409.559 373.834H379.596C378.912 373.834 378.358 374.423 378.358 375.149V384.205C378.358 384.932 378.912 385.521 379.596 385.521Z" fill="#263238" stroke="#263238" stroke-width="0.453401" stroke-linecap="round" stroke-linejoin="round"/>
<path d="M452.047 316.041V394.239" stroke="#263238" stroke-width="0.453401" stroke-linecap="round" stroke-linejoin="round"/>
<path d="M424.012 196.289C427.046 193.507 430.793 187.221 432.163 186.639C434.562 185.591 442.231 184.486 445.156 182.879C448.081 181.273 448.826 182.274 447.062 184.649C445.298 187.023 439.481 189.107 439.481 189.107C439.481 189.107 436.709 194.834 433.784 196.44L431.845 197.546" fill="white"/>
<path d="M424.012 196.289C427.046 193.507 430.793 187.221 432.163 186.639C434.562 185.591 442.231 184.486 445.156 182.879C448.081 181.273 448.826 182.274 447.062 184.649C445.298 187.023 439.481 189.107 439.481 189.107C439.481 189.107 436.709 194.834 433.784 196.44L431.845 197.546" stroke="#263238" stroke-width="0.453401" stroke-linecap="round" stroke-linejoin="round"/>
<path d="M2.35547 502.84H520.551" stroke="#263238" stroke-width="0.453401" stroke-linecap="round" stroke-linejoin="round"/>
</svg>
